<svg xmlns="http://www.w3.org/2000/svg" viewBox="0 0 500 500"><g id="freepik--background-complete--inject-62"><rect y="382.4" width="500" height="0.25" style="fill:#ebebeb"></rect><path d="M237,337.8H43.91a5.71,5.71,0,0,1-5.7-5.71V60.66A5.71,5.71,0,0,1,43.91,55H237a5.71,5.71,0,0,1,5.71,5.71V332.09A5.71,5.71,0,0,1,237,337.8ZM43.91,55.2a5.46,5.46,0,0,0-5.45,5.46V332.09a5.46,5.46,0,0,0,5.45,5.46H237a5.47,5.47,0,0,0,5.46-5.46V60.66A5.47,5.47,0,0,0,237,55.2Z" style="fill:#ebebeb"></path><path d="M453.31,337.8H260.21a5.72,5.72,0,0,1-5.71-5.71V60.66A5.72,5.72,0,0,1,260.21,55h193.1A5.71,5.71,0,0,1,459,60.66V332.09A5.71,5.71,0,0,1,453.31,337.8ZM260.21,55.2a5.47,5.47,0,0,0-5.46,5.46V332.09a5.47,5.47,0,0,0,5.46,5.46h193.1a5.47,5.47,0,0,0,5.46-5.46V60.66a5.47,5.47,0,0,0-5.46-5.46Z" style="fill:#ebebeb"></path><rect x="423.9" y="391.92" width="26" height="0.25" style="fill:#ebebeb"></rect><rect x="301.93" y="389.21" width="54.1" height="0.25" style="fill:#ebebeb"></rect><rect x="396.59" y="401.21" width="35.41" height="0.25" style="fill:#ebebeb"></rect><rect x="52.46" y="399.53" width="23.69" height="0.25" style="fill:#ebebeb"></rect><rect x="85.05" y="399.53" width="25.84" height="0.25" style="fill:#ebebeb"></rect><rect x="210.58" y="395.31" width="54.56" height="0.25" style="fill:#ebebeb"></rect><rect x="157.77" y="260.33" width="342.23" height="122.07" style="fill:#f5f5f5"></rect><polygon points="141 260.33 500 260.33 500 245 138 245 141 260.33" style="fill:#f5f5f5"></polygon><rect x="157.77" y="260.33" width="342.23" height="8.33" style="fill:#e6e6e6"></rect><path d="M227.5,372.17h-55v-95h55Zm-54-1h53v-93h-53Z" style="fill:#ebebeb"></path><path d="M298.37,372.17h-55v-95h55Zm-54-1h53v-93h-53Z" style="fill:#ebebeb"></path><path d="M369.23,372.17h-55v-95h55Zm-54-1h53v-93h-53Z" style="fill:#ebebeb"></path><path d="M440.1,372.17h-55v-95h55Zm-54-1h53v-93h-53Z" style="fill:#ebebeb"></path><polygon points="500 372.17 455.96 372.17 455.96 277.17 500 277.17 500 278.17 456.96 278.17 456.96 371.17 500 371.17 500 372.17" style="fill:#ebebeb"></polygon><path d="M140.22,289.5H102.89a6.85,6.85,0,0,1-6.83-6.83h0a6.85,6.85,0,0,1,6.83-6.84h37.33a6.86,6.86,0,0,1,6.84,6.84h0A6.85,6.85,0,0,1,140.22,289.5Z" style="fill:#e6e6e6"></path><polygon points="101.13 382.4 98.28 382.4 105.87 289.5 108.72 289.5 101.13 382.4" style="fill:#f0f0f0"></polygon><polygon points="119.38 382.4 116.53 382.4 120.29 289.5 123.14 289.5 119.38 382.4" style="fill:#f0f0f0"></polygon><rect x="101.61" y="356.44" width="41.78" height="6.56" style="fill:#f0f0f0"></rect><polygon points="143.65 382.4 146.5 382.4 138.91 289.5 136.06 289.5 143.65 382.4" style="fill:#f0f0f0"></polygon><path d="M256.52,289.5H219.19a6.85,6.85,0,0,1-6.83-6.83h0a6.85,6.85,0,0,1,6.83-6.84h37.33a6.86,6.86,0,0,1,6.84,6.84h0A6.85,6.85,0,0,1,256.52,289.5Z" style="fill:#e6e6e6"></path><polygon points="217.43 382.4 214.58 382.4 222.17 289.5 225.02 289.5 217.43 382.4" style="fill:#fff"></polygon><polygon points="235.68 382.4 232.83 382.4 236.59 289.5 239.44 289.5 235.68 382.4" style="fill:#fff"></polygon><rect x="217.91" y="356.44" width="41.78" height="6.56" style="fill:#fff"></rect><polygon points="259.95 382.4 262.8 382.4 255.21 289.5 252.36 289.5 259.95 382.4" style="fill:#fff"></polygon><path d="M404.77,289.5H367.43a6.85,6.85,0,0,1-6.83-6.83h0a6.85,6.85,0,0,1,6.83-6.84h37.34a6.86,6.86,0,0,1,6.83,6.84h0A6.85,6.85,0,0,1,404.77,289.5Z" style="fill:#e6e6e6"></path><polygon points="365.67 382.4 362.82 382.4 370.41 289.5 373.26 289.5 365.67 382.4" style="fill:#fff"></polygon><polygon points="383.92 382.4 381.07 382.4 384.83 289.5 387.68 289.5 383.92 382.4" style="fill:#fff"></polygon><rect x="366.15" y="356.44" width="41.78" height="6.56" style="fill:#fff"></rect><polygon points="408.19 382.4 411.04 382.4 403.45 289.5 400.6 289.5 408.19 382.4" style="fill:#fff"></polygon><path d="M200.18,158.38l-.3-.45a9.44,9.44,0,0,1-1.56-4.29l-.93-8.93a.33.33,0,0,0,.3-.32.34.34,0,0,0-.34-.34H193.7a.34.34,0,0,0-.34.34.32.32,0,0,0,.29.32l-.93,8.93a9.43,9.43,0,0,1-1.55,4.29l-.3.45a4.39,4.39,0,0,0-.76,2.48v18.93a1.43,1.43,0,0,0,1.44,1.43h7.95a1.44,1.44,0,0,0,1.44-1.43V160.86A4.47,4.47,0,0,0,200.18,158.38Z" style="fill:#e0e0e0"></path><rect x="190.11" y="163.72" width="6.7" height="12.01" style="fill:#f5f5f5"></rect><path d="M220.58,158.38l-.31-.45a9.43,9.43,0,0,1-1.55-4.29l-.93-8.93a.32.32,0,0,0,.29-.32.34.34,0,0,0-.33-.34h-3.66a.34.34,0,0,0-.33.34.32.32,0,0,0,.29.32l-.93,8.93a9.43,9.43,0,0,1-1.55,4.29l-.3.45a4.39,4.39,0,0,0-.76,2.48v18.93a1.43,1.43,0,0,0,1.44,1.43h8a1.43,1.43,0,0,0,1.43-1.43V160.86A4.46,4.46,0,0,0,220.58,158.38Z" style="fill:#e0e0e0"></path><rect x="210.51" y="163.72" width="4.94" height="12.01" style="fill:#f5f5f5"></rect><path d="M234.41,158.38l-.3-.45a9.44,9.44,0,0,1-1.56-4.29l-.93-8.93a.33.33,0,0,0,.3-.32.34.34,0,0,0-.34-.34h-3.65a.34.34,0,0,0-.34.34.33.33,0,0,0,.3.32l-.94,8.93a9.43,9.43,0,0,1-1.55,4.29l-.3.45a4.47,4.47,0,0,0-.76,2.48v18.93a1.44,1.44,0,0,0,1.44,1.43h7.95a1.44,1.44,0,0,0,1.44-1.43V160.86A4.47,4.47,0,0,0,234.41,158.38Z" style="fill:#e0e0e0"></path><rect x="224.34" y="163.72" width="7.71" height="12.01" style="fill:#f5f5f5"></rect><path d="M343.35,158.38l-.31-.45a9.43,9.43,0,0,1-1.55-4.29l-.93-8.93a.32.32,0,0,0,.29-.32.34.34,0,0,0-.33-.34h-3.66a.34.34,0,0,0-.33.34.32.32,0,0,0,.29.32l-.93,8.93a9.43,9.43,0,0,1-1.55,4.29l-.31.45a4.46,4.46,0,0,0-.75,2.48v18.93a1.43,1.43,0,0,0,1.43,1.43h8a1.43,1.43,0,0,0,1.43-1.43V160.86A4.46,4.46,0,0,0,343.35,158.38Z" style="fill:#e0e0e0"></path><rect x="333.28" y="163.72" width="8" height="12.01" style="fill:#f5f5f5"></rect><path d="M357.18,158.38l-.3-.45a9.44,9.44,0,0,1-1.56-4.29l-.93-8.93a.33.33,0,0,0,.3-.32.34.34,0,0,0-.34-.34H350.7a.34.34,0,0,0-.34.34.32.32,0,0,0,.29.32l-.93,8.93a9.43,9.43,0,0,1-1.55,4.29l-.3.45a4.39,4.39,0,0,0-.76,2.48v18.93a1.43,1.43,0,0,0,1.44,1.43h7.95a1.44,1.44,0,0,0,1.44-1.43V160.86A4.47,4.47,0,0,0,357.18,158.38Z" style="fill:#e0e0e0"></path><rect x="347.11" y="163.72" width="4.56" height="12.01" style="fill:#f5f5f5"></rect><rect x="356.76" y="163.72" width="1.17" height="12.01" style="fill:#f5f5f5"></rect><path d="M371,158.38l-.3-.45a9.43,9.43,0,0,1-1.55-4.29l-.93-8.93a.32.32,0,0,0,.29-.32.34.34,0,0,0-.34-.34h-3.65a.34.34,0,0,0-.34.34.33.33,0,0,0,.3.32l-.93,8.93a9.44,9.44,0,0,1-1.56,4.29l-.3.45a4.47,4.47,0,0,0-.76,2.48v18.93a1.44,1.44,0,0,0,1.44,1.43h7.95a1.43,1.43,0,0,0,1.44-1.43V160.86A4.39,4.39,0,0,0,371,158.38Z" style="fill:#e0e0e0"></path><rect x="360.94" y="163.72" width="6.28" height="12.01" style="fill:#f5f5f5"></rect><path d="M282,158.38l-.3-.45a9.43,9.43,0,0,1-1.55-4.29l-.93-8.93a.32.32,0,0,0,.29-.32.34.34,0,0,0-.34-.34h-3.65a.34.34,0,0,0-.34.34.33.33,0,0,0,.3.32l-.93,8.93a9.44,9.44,0,0,1-1.56,4.29l-.3.45a4.47,4.47,0,0,0-.76,2.48v18.93a1.44,1.44,0,0,0,1.44,1.43h7.95a1.44,1.44,0,0,0,1.44-1.43V160.86A4.47,4.47,0,0,0,282,158.38Z" style="fill:#f5f5f5"></path><rect x="271.89" y="163.72" width="6.7" height="12.01" style="fill:#e0e0e0"></rect><path d="M295.79,158.38l-.3-.45a9.43,9.43,0,0,1-1.55-4.29l-.93-8.93a.32.32,0,0,0,.29-.32.34.34,0,0,0-.33-.34h-3.66a.34.34,0,0,0-.33.34.32.32,0,0,0,.29.32l-.93,8.93a9.43,9.43,0,0,1-1.55,4.29l-.31.45a4.46,4.46,0,0,0-.75,2.48v18.93a1.43,1.43,0,0,0,1.43,1.43h7.95a1.43,1.43,0,0,0,1.44-1.43V160.86A4.39,4.39,0,0,0,295.79,158.38Z" style="fill:#f5f5f5"></path><rect x="285.73" y="163.72" width="8.44" height="12.01" style="fill:#e0e0e0"></rect><path d="M309.63,158.38l-.31-.45a9.43,9.43,0,0,1-1.55-4.29l-.93-8.93a.32.32,0,0,0,.29-.32.34.34,0,0,0-.33-.34h-3.65a.34.34,0,0,0-.34.34.32.32,0,0,0,.29.32l-.93,8.93a9.43,9.43,0,0,1-1.55,4.29l-.3.45a4.39,4.39,0,0,0-.76,2.48v18.93a1.43,1.43,0,0,0,1.44,1.43H309a1.43,1.43,0,0,0,1.43-1.43V160.86A4.46,4.46,0,0,0,309.63,158.38Z" style="fill:#f5f5f5"></path><rect x="303.68" y="163.72" width="6.7" height="12.01" style="fill:#e0e0e0"></rect><path d="M392.43,158.38l.3-.45a9.44,9.44,0,0,0,1.56-4.29l.93-8.93a.33.33,0,0,1-.3-.32.34.34,0,0,1,.34-.34h3.65a.34.34,0,0,1,.34.34.32.32,0,0,1-.29.32l.93,8.93a9.43,9.43,0,0,0,1.55,4.29l.3.45a4.47,4.47,0,0,1,.76,2.48v18.93a1.44,1.44,0,0,1-1.44,1.43h-7.95a1.44,1.44,0,0,1-1.44-1.43V160.86A4.47,4.47,0,0,1,392.43,158.38Z" style="fill:#e0e0e0"></path><rect x="394.5" y="163.72" width="8" height="12.01" transform="translate(797 339.46) rotate(180)" style="fill:#f5f5f5"></rect><path d="M440,158.38l.3-.45a9.44,9.44,0,0,0,1.56-4.29l.93-8.93a.33.33,0,0,1-.3-.32.34.34,0,0,1,.34-.34h3.65a.34.34,0,0,1,.34.34.32.32,0,0,1-.29.32l.93,8.93a9.43,9.43,0,0,0,1.55,4.29l.3.45a4.39,4.39,0,0,1,.76,2.48v18.93a1.43,1.43,0,0,1-1.44,1.43h-7.95a1.44,1.44,0,0,1-1.44-1.43V160.86A4.47,4.47,0,0,1,440,158.38Z" style="fill:#f5f5f5"></path><rect x="441.61" y="163.72" width="8.44" height="12.01" transform="translate(891.66 339.46) rotate(180)" style="fill:#e0e0e0"></rect><path d="M426.15,158.38l.3-.45a9.43,9.43,0,0,0,1.55-4.29l.93-8.93a.32.32,0,0,1-.29-.32.34.34,0,0,1,.34-.34h3.65a.34.34,0,0,1,.34.34.33.33,0,0,1-.3.32l.93,8.93a9.44,9.44,0,0,0,1.56,4.29l.3.45a4.47,4.47,0,0,1,.76,2.48v18.93a1.44,1.44,0,0,1-1.44,1.43h-7.95a1.43,1.43,0,0,1-1.44-1.43V160.86A4.39,4.39,0,0,1,426.15,158.38Z" style="fill:#f5f5f5"></path><rect x="425.39" y="163.72" width="6.7" height="12.01" transform="translate(857.49 339.46) rotate(180)" style="fill:#e0e0e0"></rect><path d="M409.18,94.6l-.3-.45a9.43,9.43,0,0,1-1.55-4.29l-.93-8.93a.32.32,0,0,0,.29-.32.34.34,0,0,0-.34-.34H402.7a.34.34,0,0,0-.33.34.32.32,0,0,0,.29.32l-.93,8.93a9.43,9.43,0,0,1-1.55,4.29l-.31.45a4.5,4.5,0,0,0-.75,2.49V116a1.43,1.43,0,0,0,1.43,1.43h7.95a1.43,1.43,0,0,0,1.44-1.43V97.09A4.43,4.43,0,0,0,409.18,94.6Z" style="fill:#f5f5f5"></path><rect x="403.24" y="99.94" width="6.7" height="12.01" style="fill:#e0e0e0"></rect><path d="M323.66,158.38l-.31-.45a9.43,9.43,0,0,1-1.55-4.29l-.93-8.93a.32.32,0,0,0,.29-.32.34.34,0,0,0-.33-.34h-3.66a.34.34,0,0,0-.33.34.32.32,0,0,0,.29.32l-.93,8.93a9.43,9.43,0,0,1-1.55,4.29l-.31.45a4.46,4.46,0,0,0-.75,2.48v18.93a1.43,1.43,0,0,0,1.43,1.43h8a1.43,1.43,0,0,0,1.43-1.43V160.86A4.46,4.46,0,0,0,323.66,158.38Z" style="fill:#f5f5f5"></path><rect x="314.64" y="163.72" width="8.63" height="12.01" style="fill:#e0e0e0"></rect><path d="M254.11,94.6l.31-.45A9.43,9.43,0,0,0,256,89.86l.93-8.93a.32.32,0,0,1-.29-.32.34.34,0,0,1,.33-.34h3.66a.34.34,0,0,1,.33.34.32.32,0,0,1-.29.32l.93,8.93a9.43,9.43,0,0,0,1.55,4.29l.3.45a4.43,4.43,0,0,1,.76,2.49V116a1.43,1.43,0,0,1-1.44,1.43h-8a1.43,1.43,0,0,1-1.43-1.43V97.09A4.5,4.5,0,0,1,254.11,94.6Z" style="fill:#e0e0e0"></path><rect x="256.18" y="99.94" width="8" height="12.01" transform="translate(520.36 211.9) rotate(180)" style="fill:#f5f5f5"></rect><path d="M283.11,94.6l-.3-.45a9.43,9.43,0,0,1-1.55-4.29l-.93-8.93a.32.32,0,0,0,.29-.32.34.34,0,0,0-.33-.34h-3.66a.34.34,0,0,0-.33.34.32.32,0,0,0,.29.32l-.93,8.93a9.43,9.43,0,0,1-1.55,4.29l-.31.45a4.5,4.5,0,0,0-.75,2.49V116a1.43,1.43,0,0,0,1.43,1.43h7.95a1.43,1.43,0,0,0,1.44-1.43V97.09A4.43,4.43,0,0,0,283.11,94.6Z" style="fill:#e0e0e0"></path><rect x="273.05" y="99.94" width="4.56" height="12.01" style="fill:#f5f5f5"></rect><rect x="282.7" y="99.94" width="1.17" height="12.01" style="fill:#f5f5f5"></rect><path d="M212.61,94.6l.31-.45a9.43,9.43,0,0,0,1.55-4.29l.93-8.93a.32.32,0,0,1-.29-.32.34.34,0,0,1,.33-.34h3.66a.34.34,0,0,1,.33.34.32.32,0,0,1-.29.32l.93,8.93a9.43,9.43,0,0,0,1.55,4.29l.3.45a4.43,4.43,0,0,1,.76,2.49V116a1.43,1.43,0,0,1-1.44,1.43h-8a1.43,1.43,0,0,1-1.43-1.43V97.09A4.5,4.5,0,0,1,212.61,94.6Z" style="fill:#e0e0e0"></path><rect x="216.4" y="99.94" width="6.28" height="12.01" transform="translate(439.08 211.9) rotate(180)" style="fill:#f5f5f5"></rect><path d="M287.83,94.6l.3-.45a9.44,9.44,0,0,0,1.56-4.29l.93-8.93a.33.33,0,0,1-.3-.32.34.34,0,0,1,.34-.34h3.65a.34.34,0,0,1,.34.34.32.32,0,0,1-.29.32l.93,8.93a9.43,9.43,0,0,0,1.55,4.29l.3.45a4.5,4.5,0,0,1,.76,2.49V116a1.43,1.43,0,0,1-1.44,1.43h-7.95a1.44,1.44,0,0,1-1.44-1.43V97.09A4.5,4.5,0,0,1,287.83,94.6Z" style="fill:#f5f5f5"></path><rect x="287.07" y="99.94" width="6.7" height="12.01" transform="translate(580.85 211.9) rotate(180)" style="fill:#e0e0e0"></rect><path d="M249.59,94.6l-.3-.45a9.31,9.31,0,0,1-1.55-4.29l-.94-8.93a.33.33,0,0,0,.3-.32.34.34,0,0,0-.34-.34h-3.65a.34.34,0,0,0-.34.34.33.33,0,0,0,.3.32l-.93,8.93a9.44,9.44,0,0,1-1.56,4.29l-.3.45a4.5,4.5,0,0,0-.76,2.49V116a1.44,1.44,0,0,0,1.44,1.43h7.95a1.44,1.44,0,0,0,1.44-1.43V97.09A4.5,4.5,0,0,0,249.59,94.6Z" style="fill:#f5f5f5"></path><rect x="240.58" y="99.94" width="8.63" height="12.01" style="fill:#e0e0e0"></rect><path d="M424.23,94.6l-.3-.45a9.43,9.43,0,0,1-1.55-4.29l-.93-8.93a.32.32,0,0,0,.29-.32.34.34,0,0,0-.33-.34h-3.66a.34.34,0,0,0-.33.34.32.32,0,0,0,.29.32l-.93,8.93a9.43,9.43,0,0,1-1.55,4.29l-.31.45a4.5,4.5,0,0,0-.75,2.49V116a1.43,1.43,0,0,0,1.43,1.43h7.95A1.43,1.43,0,0,0,425,116V97.09A4.43,4.43,0,0,0,424.23,94.6Z" style="fill:#e0e0e0"></path><rect x="414.17" y="99.94" width="5.08" height="12.01" style="fill:#f5f5f5"></rect><rect x="423.75" y="99.94" width="1.24" height="12.01" style="fill:#f5f5f5"></rect><path d="M382.48,94.6l-.31-.45a9.43,9.43,0,0,1-1.55-4.29l-.93-8.93a.32.32,0,0,0,.29-.32.34.34,0,0,0-.33-.34H376a.34.34,0,0,0-.33.34.32.32,0,0,0,.29.32L375,89.86a9.43,9.43,0,0,1-1.55,4.29l-.31.45a4.5,4.5,0,0,0-.75,2.49V116a1.43,1.43,0,0,0,1.43,1.43h8a1.43,1.43,0,0,0,1.43-1.43V97.09A4.5,4.5,0,0,0,382.48,94.6Z" style="fill:#e0e0e0"></path><rect x="372.41" y="99.94" width="8.15" height="12.01" style="fill:#f5f5f5"></rect><path d="M451.9,94.6l-.3-.45a9.43,9.43,0,0,1-1.55-4.29l-.94-8.93a.33.33,0,0,0,.3-.32.34.34,0,0,0-.34-.34h-3.65a.34.34,0,0,0-.34.34.33.33,0,0,0,.3.32l-.93,8.93a9.44,9.44,0,0,1-1.56,4.29l-.3.45a4.5,4.5,0,0,0-.76,2.49V116a1.44,1.44,0,0,0,1.44,1.43h8a1.44,1.44,0,0,0,1.44-1.43V97.09A4.5,4.5,0,0,0,451.9,94.6Z" style="fill:#e0e0e0"></path><rect x="441.83" y="99.94" width="6.7" height="12.01" style="fill:#f5f5f5"></rect><rect x="166.56" y="181.22" width="333.44" height="7.56" style="fill:#f5f5f5"></rect><rect x="166.56" y="117.44" width="333.44" height="7.56" style="fill:#f5f5f5"></rect><rect x="60.01" y="111.39" width="76.76" height="113.81" transform="translate(196.77 336.58) rotate(180)" style="fill:#e0e0e0"></rect><rect x="55.35" y="111.39" width="79.94" height="113.81" transform="translate(190.63 336.58) rotate(180)" style="fill:#f5f5f5"></rect><rect x="47.38" y="135.02" width="95.87" height="66.54" transform="translate(-72.98 263.61) rotate(-90)" style="fill:#fff"></rect><path d="M95.05,143.27v5h0a11.37,11.37,0,0,1-11.37-11.37v-5h0A11.37,11.37,0,0,1,95.05,143.27Z" style="fill:#f5f5f5"></path><path d="M95.05,159.65v5h0a11.38,11.38,0,0,1-11.37-11.38v-5h0A11.37,11.37,0,0,1,95.05,159.65Z" style="fill:#f5f5f5"></path><path d="M95.05,176v5h0a11.37,11.37,0,0,1-11.37-11.37v-5h0A11.37,11.37,0,0,1,95.05,176Z" style="fill:#f5f5f5"></path><path d="M95.05,192.42v5h0a11.38,11.38,0,0,1-11.37-11.38v-5h0A11.37,11.37,0,0,1,95.05,192.42Z" style="fill:#f5f5f5"></path><path d="M95.58,150.52v5h0A11.37,11.37,0,0,0,107,144.16v-5h0A11.37,11.37,0,0,0,95.58,150.52Z" style="fill:#f5f5f5"></path><path d="M95.58,166.9v5h0A11.38,11.38,0,0,0,107,160.54v-5h0A11.37,11.37,0,0,0,95.58,166.9Z" style="fill:#f5f5f5"></path><path d="M95.58,183.29v5h0A11.37,11.37,0,0,0,107,176.93v-5h0A11.37,11.37,0,0,0,95.58,183.29Z" style="fill:#f5f5f5"></path><path d="M95.58,199.67v5h0A11.38,11.38,0,0,0,107,193.31v-5h0A11.37,11.37,0,0,0,95.58,199.67Z" style="fill:#f5f5f5"></path></g><g id="freepik--Shadow--inject-62"><ellipse id="freepik--path--inject-62" cx="250" cy="416.24" rx="193.89" ry="11.32" style="fill:#f5f5f5"></ellipse></g><g id="freepik--character-2--inject-62"><path d="M220.25,35.46a87.58,87.58,0,0,0-10.29.73,56.9,56.9,0,0,1,9.26-.75C219.56,35.44,219.91,35.44,220.25,35.46Z" style="fill:#fff;opacity:0.9"></path><polygon points="285.99 407.54 278.41 405.45 281.23 387.34 288.81 389.43 285.99 407.54" style="fill:#ffc3bd"></polygon><polygon points="350.49 407.73 342.62 407.73 340.67 389.52 348.53 389.52 350.49 407.73" style="fill:#ffc3bd"></polygon><path d="M342,406.82h9.58a.69.69,0,0,1,.67.54l1.56,7a1.16,1.16,0,0,1-1.16,1.4c-3.08-.05-5.33-.24-9.22-.24-2.39,0-9.59.25-12.89.25s-3.74-3.26-2.38-3.56c6.05-1.32,10.62-3.15,12.56-4.89A1.9,1.9,0,0,1,342,406.82Z" style="fill:#263238"></path><path d="M278.71,404.59l8.28,2.28a.68.68,0,0,1,.5.69l-.36,7.16a1.14,1.14,0,0,1-1.46,1c-3-.87-7.24-2.23-11-3.27-4.39-1.21-8.24-2-13.39-3.43-3.11-.86-3.11-4.24-1.73-4.17,6.29.34,11.17,1.53,17.17-.22A3.64,3.64,0,0,1,278.71,404.59Z" style="fill:#263238"></path><path d="M316.73,172.11c-.87.32-1.54.55-2.3.8s-1.47.46-2.21.67c-1.48.43-3,.81-4.46,1.16a69.19,69.19,0,0,1-9.18,1.51,51.5,51.5,0,0,1-9.63.09,31.16,31.16,0,0,1-10.08-2.46c-.42-.17-.84-.38-1.26-.6L277,173l-.15-.08-.22-.13-.44-.28-.44-.29-.35-.27-.67-.55c-.36-.34-.77-.71-1.08-1a34.65,34.65,0,0,1-3.14-4,80,80,0,0,1-4.64-7.84,136.69,136.69,0,0,1-7.09-16.14l5.28-2.63c3.16,4.71,6.34,9.48,9.57,14,1.6,2.27,3.28,4.49,4.95,6.47a24.48,24.48,0,0,0,2.46,2.56c.19.18.34.27.51.41l.18.11s.06,0,.08,0h.05l.09,0,.35.14a7.49,7.49,0,0,0,.71.28,17.61,17.61,0,0,0,3.18.78,26.12,26.12,0,0,0,3.52.33,47.68,47.68,0,0,0,7.56-.43c2.58-.34,5.19-.85,7.79-1.45,1.3-.3,2.59-.64,3.88-1l1.91-.56c.61-.18,1.31-.4,1.79-.56Z" style="fill:#ffc3bd"></path><path d="M322.46,171.12c-3.51,6.65-25.94,10.59-25.94,10.59L290.8,162.8s8.86-2.27,18.4-4.17C315.6,157.35,326.27,163.88,322.46,171.12Z" style="fill:#407BFF"></path><path d="M309,167.89c-2.8,1.85-6.65,8.23-7.95,12.88a77.78,77.78,0,0,0,15.49-5C314.85,172.48,311.3,166.37,309,167.89Z" style="opacity:0.2"></path><polygon points="294.5 183.5 288.91 162.4 292.67 160.99 299 182.75 294.5 183.5" style="fill:#263238"></polygon><path d="M264.45,140.31l-4.32-7.17-5.26,7.45a8.44,8.44,0,0,0,5.92,3.53Z" style="fill:#ffc3bd"></path><polygon points="255.78 128.85 251.87 135.53 254.87 140.59 260.13 133.13 255.78 128.85" style="fill:#ffc3bd"></polygon><path d="M259.64,146.16l-2.89-18.73a4.39,4.39,0,0,0-1.12-2.34l-.37-.41a9.36,9.36,0,0,1-2.19-4l-2.29-8.7a.32.32,0,0,0,.24-.37.34.34,0,0,0-.38-.28l-3.62.56a.34.34,0,0,0-.28.38.33.33,0,0,0,.34.28l.44,9a9.46,9.46,0,0,1-.88,4.48l-.23.5a4.38,4.38,0,0,0-.37,2.57l2.89,18.73a1.44,1.44,0,0,0,1.64,1.21l7.87-1.22A1.43,1.43,0,0,0,259.64,146.16Z" style="fill:#407BFF"></path><path d="M259.64,146.16l-2.89-18.73a4.39,4.39,0,0,0-1.12-2.34l-.37-.41a9.36,9.36,0,0,1-2.19-4l-2.29-8.7a.32.32,0,0,0,.24-.37.34.34,0,0,0-.38-.28l-3.62.56a.34.34,0,0,0-.28.38.33.33,0,0,0,.34.28l.44,9a9.46,9.46,0,0,1-.88,4.48l-.23.5a4.38,4.38,0,0,0-.37,2.57l2.89,18.73a1.44,1.44,0,0,0,1.64,1.21l7.87-1.22A1.43,1.43,0,0,0,259.64,146.16Z" style="opacity:0.4"></path><rect x="247.32" y="131.33" width="6.75" height="12.03" transform="translate(-18 39.81) rotate(-8.77)" style="fill:#407BFF"></rect><polygon points="281.23 387.34 279.78 396.68 287.36 398.77 288.82 389.43 281.23 387.34" style="opacity:0.2"></polygon><polygon points="348.53 389.53 340.66 389.53 341.68 398.92 349.54 398.92 348.53 389.53" style="opacity:0.2"></polygon><path d="M353.17,161.3a178.69,178.69,0,0,0-5,25.87c-.74,6.09-1.19,11.9-1.46,17.18-.66,12.36-.39,21.78-.75,25-6.15-.42-29.32-2-42-2.92-5.71-44.73,5.2-67.77,5.2-67.77a82.06,82.06,0,0,1,10-1.25c.71,0,1.44-.07,2.17-.08a155.11,155.11,0,0,1,17.84,1.24c1.12.13,2.26.3,3.36.48C348.23,159.93,353.17,161.3,353.17,161.3Z" style="fill:#407BFF"></path><path d="M339.25,158.54a155.11,155.11,0,0,0-17.84-1.24c-.73,0-1.46,0-2.17.08l-.25,0c-1.27,2.63-.91,7.23,4.94,8A22.4,22.4,0,0,0,342.61,159C341.51,158.84,340.37,158.67,339.25,158.54Z" style="fill:#263238"></path><path d="M342.58,172.62a33,33,0,0,0,5.19,18.18c.12-1.2.26-2.41.4-3.63.56-4.58,1.29-9.32,2.24-14.11Z" style="opacity:0.2"></path><path d="M338.88,138.33c-1.53,5.67-3.38,16.1.36,20.21a17.84,17.84,0,0,1-14.13,4.51c-4.93-.45-4.93-3.92-3.7-5.75,6.51-1.08,6.67-5.84,5.87-10.38Z" style="fill:#ffc3bd"></path><path d="M334.15,141.84l-6.87,5.07a17.75,17.75,0,0,1,.33,3.21c2.47-.18,6-2.63,6.46-5.17A8.73,8.73,0,0,0,334.15,141.84Z" style="opacity:0.2"></path><path d="M317.74,119.51c-1.66,4.37-1.28,17.29,4.4,14.64s22.12-14.26,22.12-14.26S321.64,109.28,317.74,119.51Z" style="fill:#263238"></path><path d="M340.16,129.75c-1,7.73-1.22,12.31-5.42,16-6.32,5.59-15.67,1.36-17-6.53-1.18-7.1.68-18.56,8.51-21.12A10.64,10.64,0,0,1,340.16,129.75Z" style="fill:#ffc3bd"></path><path d="M325.11,139.64h0a5.68,5.68,0,0,0,4.88-2,.2.2,0,0,0-.32-.24,5.4,5.4,0,0,1-4.53,1.83.2.2,0,1,0,0,.4Z" style="fill:#263238"></path><path d="M334.51,133.25c-1.77-6.38-1.22-12.91,4.5-14.91s9.74.68,10.5,4.71S337.09,142.55,334.51,133.25Z" style="fill:#263238"></path><path d="M336.67,121.71c-6.84,1-13.71.87-17.14-3.39s-1.3-10,1.83-10.62a3.42,3.42,0,0,0-1.36,2.74c.13,1.64,3.29,3.69,7.32,2.7s15.17-1.71,18.53.8c4.16,3.12.78,5.88.78,5.88Z" style="fill:#263238"></path><path d="M330.16,110.78c-2.94.08-4.7-1.64-4.67-3,0-1.17,1.35-1.69,1.35-1.69-2.26,0-4.6,3.62-2.85,7.08s6.49,4.56,11.37,4.89l7.51-4C340.92,111.85,333.1,110.69,330.16,110.78Z" style="fill:#263238"></path><path d="M336.73,110.65c-4.77.56-5.78-1.83-5.59-2.83a2.11,2.11,0,0,1,1.09-1.44c-2-.11-4.19,3-2.83,6.06s5.46,4.3,9.71,4.81l8.52-1.28C346,112.51,341.83,110.06,336.73,110.65Z" style="fill:#263238"></path><path d="M343.08,138.56a7.41,7.41,0,0,1-4.84,2.94c-2.58.38-3.54-2-2.55-4.26.89-2,3.3-4.68,5.75-4S344.48,136.6,343.08,138.56Z" style="fill:#ffc3bd"></path><path d="M277.42,394.15l12.84,3.53s16.07-50.68,20-78.51c1.05-7.38,2.67-17.76,5.13-28.82,3.12-13.93,7-29,10.23-40.8,3.37-12.43,5.94-21.22,5.94-21.22L304,226.4s-14.93,65.1-16.51,89C285.84,340.34,277.42,394.15,277.42,394.15Z" style="fill:#263238"></path><path d="M315.41,290.35c3.12-13.93,7-29,10.23-40.8l-2.87-6.17C315.93,251.51,314.09,276.68,315.41,290.35Z" style="opacity:0.2"></path><path d="M318.88,227.44s3,67.32,6.3,90.12c3.63,25,12.86,79.54,12.86,79.54h14.41s.24-51.74-4.27-75.93C343,293.63,346,229.33,346,229.33Z" style="fill:#263238"></path><polygon points="336.32 397.41 353.28 397.41 353.28 392.34 334.32 392.01 336.32 397.41" style="fill:#407BFF"></polygon><polygon points="276.53 394.22 291.02 398.22 293.11 393.22 276.59 388.64 276.53 394.22" style="fill:#407BFF"></polygon><path d="M328.23,131.1c-.05.63-.42,1.12-.83,1.09s-.71-.57-.67-1.2.41-1.12.83-1.09S328.27,130.46,328.23,131.1Z" style="fill:#263238"></path><path d="M321.08,130.6c-.05.63-.42,1.12-.83,1.09s-.72-.57-.67-1.2.41-1.12.83-1.09S321.12,130,321.08,130.6Z" style="fill:#263238"></path><path d="M323.33,131.07a22.94,22.94,0,0,1-3.4,5.2c1,1.12,3.08.63,3.08.63Z" style="fill:#ed847e"></path><path d="M330.61,128.94a.38.38,0,0,1-.35-.17,3,3,0,0,0-2.3-1.41.37.37,0,0,1,0-.74,3.69,3.69,0,0,1,2.92,1.74.38.38,0,0,1-.11.52A.44.44,0,0,1,330.61,128.94Z" style="fill:#263238"></path><path d="M318.18,127.92a.36.36,0,0,1-.22,0,.37.37,0,0,1-.14-.51,3.69,3.69,0,0,1,2.81-1.9.37.37,0,0,1,.4.35.38.38,0,0,1-.35.39h0a3,3,0,0,0-2.22,1.54A.36.36,0,0,1,318.18,127.92Z" style="fill:#263238"></path><path d="M339.38,408.2a2.4,2.4,0,0,1-1.52-.4,1.12,1.12,0,0,1-.38-1,.56.56,0,0,1,.32-.52c.87-.45,3.4,1.11,3.69,1.29a.17.17,0,0,1,.08.18.18.18,0,0,1-.14.16A9.31,9.31,0,0,1,339.38,408.2Zm-1.17-1.63a.43.43,0,0,0-.24.05c-.05,0-.11.07-.12.22a.75.75,0,0,0,.25.67,3.79,3.79,0,0,0,2.79.14A7.52,7.52,0,0,0,338.21,406.57Z" style="fill:#407BFF"></path><path d="M341.39,407.92l-.09,0c-.81-.44-2.39-2.17-2.22-3a.61.61,0,0,1,.59-.49,1,1,0,0,1,.8.24c.91.74,1.1,3,1.1,3.11a.17.17,0,0,1-.08.17A.19.19,0,0,1,341.39,407.92Zm-1.59-3.19h-.08c-.24,0-.27.14-.27.19-.1.51.9,1.82,1.71,2.43a4.41,4.41,0,0,0-.93-2.46A.65.65,0,0,0,339.8,404.73Z" style="fill:#407BFF"></path><path d="M277.68,405.43h0c-1.29-.09-3.55-.4-4.17-1.36a1,1,0,0,1-.1-1,.57.57,0,0,1,.43-.39c1.05-.25,3.68,2.12,4,2.4a.2.2,0,0,1,0,.21A.19.19,0,0,1,277.68,405.43ZM274,403.06h-.05a.21.21,0,0,0-.17.16.66.66,0,0,0,.06.64c.35.54,1.58.95,3.33,1.14C276.06,404.09,274.56,403,274,403.06Z" style="fill:#407BFF"></path><path d="M277.68,405.43a.23.23,0,0,1-.14,0c-.8-.67-2.16-2.81-1.79-3.62.09-.2.31-.41.81-.32a1.35,1.35,0,0,1,.91.58c.75,1.06.39,3.16.37,3.25a.19.19,0,0,1-.12.14Zm-1.4-3.63a.22.22,0,0,0-.19.12c-.22.49.65,2.12,1.43,2.94a4.37,4.37,0,0,0-.35-2.62,1,1,0,0,0-.67-.42A.94.94,0,0,0,276.28,401.8Z" style="fill:#407BFF"></path><path d="M354.18,165.6c1,1.24,1.77,2.34,2.59,3.54s1.62,2.36,2.4,3.56c1.55,2.4,3,4.86,4.39,7.39a79.47,79.47,0,0,1,6.83,16.24l.09.29.1.41.18.83c.08.5.16,1,.2,1.49A23.92,23.92,0,0,1,371,202a41.5,41.5,0,0,1-.49,4.68,74.13,74.13,0,0,1-2,8.52,117,117,0,0,1-5.93,15.86L357,229.2c1-5.29,2-10.67,2.76-15.91.39-2.61.66-5.23.81-7.71a27.53,27.53,0,0,0,0-3.52c0-.54-.1-1-.17-1.46,0-.21-.09-.37-.13-.55s-.05-.11-.07-.17l0-.08-.08-.2c-.86-2.3-1.93-4.59-3.06-6.88s-2.44-4.55-3.77-6.8-2.74-4.46-4.19-6.66c-.71-1.11-1.45-2.2-2.19-3.28l-2.21-3.15Z" style="fill:#ffc3bd"></path><path d="M353.17,161.3c7.37,1.49,13.84,19.51,13.84,19.51l-15.38,12.53s-5.05-9.16-9.08-18C338.16,165.71,344.24,159.5,353.17,161.3Z" style="fill:#407BFF"></path><polygon points="368.87 181.75 351.61 195.81 348.83 192.25 366.38 177.33 368.87 181.75" style="fill:#263238"></polygon><path d="M357.85,227.66l-5.3,6,9.6,2.94s3.39-6.08.37-8.24Z" style="fill:#ffc3bd"></path><polygon points="352.09 240.18 360.15 242.23 362.15 236.56 352.55 233.62 352.09 240.18" style="fill:#ffc3bd"></polygon><path d="M259.22,134.55A18.42,18.42,0,0,0,255.1,133a22,22,0,0,0-2.52-.28s-.69,2.12,2.9,2.74c1.12,1.45,5,3.35,5,3.35Z" style="fill:#ffc3bd"></path></g><g id="freepik--character-1--inject-62"><path d="M239.91,126.83l.37-.41a9.48,9.48,0,0,0,2.1-4l2.1-8.74a.35.35,0,0,1-.25-.37.35.35,0,0,1,.38-.29l3.63.49a.33.33,0,0,1-.05.66l-.25,9a9.47,9.47,0,0,0,1,4.46l.24.49a4.43,4.43,0,0,1,.42,2.56l-2.49,18.79a1.43,1.43,0,0,1-1.61,1.24l-7.9-1.05a1.42,1.42,0,0,1-1.23-1.61l2.49-18.79A4.47,4.47,0,0,1,239.91,126.83Z" style="fill:#407BFF"></path><path d="M239.91,126.83l.37-.41a9.48,9.48,0,0,0,2.1-4l2.1-8.74a.35.35,0,0,1-.25-.37.35.35,0,0,1,.38-.29l3.63.49a.33.33,0,0,1-.05.66l-.25,9a9.47,9.47,0,0,0,1,4.46l.24.49a4.43,4.43,0,0,1,.42,2.56l-2.49,18.79a1.43,1.43,0,0,1-1.61,1.24l-7.9-1.05a1.42,1.42,0,0,1-1.23-1.61l2.49-18.79A4.47,4.47,0,0,1,239.91,126.83Z" style="fill:#fff;opacity:0.4"></path><rect x="237.61" y="132.58" width="9.08" height="12.03" transform="translate(463.97 307.82) rotate(-172.45)" style="fill:#263238"></rect><path d="M156.72,180.74c-.49.76-1.08,1.75-1.62,2.64l-1.65,2.77c-1.07,1.87-2.12,3.75-3.11,5.64s-2,3.8-2.78,5.73-1.64,3.83-2.32,5.76c-.28.95-.68,1.92-.89,2.86l-.38,1.42a6.47,6.47,0,0,0-.19.71,5.16,5.16,0,0,0,.58,3.36c1.28,2.79,4.49,5.9,7.58,8.4l-2.68,6a28.81,28.81,0,0,1-3.71-1.28,29.81,29.81,0,0,1-3.48-1.75,23.38,23.38,0,0,1-6.42-5.43,16.57,16.57,0,0,1-2.48-4.19,15,15,0,0,1-1.12-5.25,15.48,15.48,0,0,1,.15-2.68l.32-1.93c.19-1.3.54-2.5.81-3.76a80.84,80.84,0,0,1,5.18-13.85c1.07-2.18,2.16-4.33,3.37-6.41.6-1,1.22-2.08,1.86-3.1s1.28-2,2.07-3.12Z" style="fill:#ff8b7b"></path><path d="M151,219.53l5.7.61L152.26,229s-4-1.64-5-5.26Z" style="fill:#ff8b7b"></path><polygon points="163 222.78 158.98 229.88 152.26 228.95 156.72 220.14 163 222.78" style="fill:#ff8b7b"></polygon><path d="M184.08,140.74c.09.62.5,1.07.9,1s.65-.61.55-1.22-.5-1.07-.9-1S184,140.13,184.08,140.74Z" style="fill:#263238"></path><path d="M184.52,141.82a22.32,22.32,0,0,0,3.77,4.8,3.58,3.58,0,0,1-2.86,1Z" style="fill:#ff5652"></path><path d="M181.3,137.68a.36.36,0,0,0,.26-.11,2.92,2.92,0,0,1,2.5-.87.37.37,0,0,0,.15-.72,3.65,3.65,0,0,0-3.16,1.07.37.37,0,0,0,0,.52A.38.38,0,0,0,181.3,137.68Z" style="fill:#263238"></path><path d="M163.53,147.53c1.11,5.65,2.21,16-1.74,19.78,0,0,1.54,5.73,12.05,5.73,11.55,0,5.52-5.73,5.52-5.73-6.31-1.51-6.14-6.18-5.05-10.57Z" style="fill:#ff8b7b"></path><path d="M157.38,170.76a1.68,1.68,0,0,0,.27-.59c.82-3.24,4.29-5.78,8.79-5.9,4.75-.13,10.09.46,13.26,3.17,1.39,1.19-.16,2.93-.16,2.93Z" style="fill:#407BFF"></path><path d="M157.38,170.76a1.68,1.68,0,0,0,.27-.59c.82-3.24,4.29-5.78,8.79-5.9,4.75-.13,10.09.46,13.26,3.17,1.39,1.19-.16,2.93-.16,2.93Z" style="fill:#fff;opacity:0.30000000000000004"></path><path d="M137.25,403.7l.07,0a.73.73,0,0,0,.35-.79.8.8,0,0,0-.34-.62c-.91-.72-3.46-.28-3.57-.26a.19.19,0,0,0-.15.14.16.16,0,0,0,.07.18C134.3,402.8,136.34,404.06,137.25,403.7Zm-3-1.41c.86-.11,2.3-.18,2.84.24a.49.49,0,0,1,.21.37c0,.34-.12.42-.16.44C136.66,403.6,135.23,403,134.26,402.29Z" style="fill:#407BFF"></path><path d="M135.08,402c.89-.35,1.81-.92,1.95-1.47a.59.59,0,0,0-.33-.68,1,1,0,0,0-.8-.11c-1.12.28-2.22,2.24-2.27,2.32a.21.21,0,0,0,0,.19.17.17,0,0,0,.17.08A4.72,4.72,0,0,0,135.08,402Zm.78-1.87.13,0a.63.63,0,0,1,.52.07c.2.13.18.23.17.28-.13.5-1.56,1.25-2.53,1.47A4.85,4.85,0,0,1,135.86,400.15Z" style="fill:#407BFF"></path><path d="M195.71,408.75c1,0,1.95-.14,2.27-.59a.69.69,0,0,0,0-.8,1,1,0,0,0-.58-.43c-1.29-.35-4,1.19-4.1,1.26a.18.18,0,0,0-.09.19.19.19,0,0,0,.15.15A13.25,13.25,0,0,0,195.71,408.75Zm1.22-1.5a1.37,1.37,0,0,1,.36,0,.55.55,0,0,1,.35.25c.13.23.09.34,0,.41-.36.5-2.31.51-3.75.31A8.26,8.26,0,0,1,196.93,407.25Z" style="fill:#407BFF"></path><path d="M193.37,408.53h.08c.93-.42,2.78-2.09,2.64-3,0-.2-.18-.46-.69-.51a1.39,1.39,0,0,0-1,.31c-1,.81-1.19,2.89-1.2,3a.18.18,0,0,0,.18.2Zm1.89-3.13h.11c.33,0,.35.17.35.21.09.52-1.17,1.84-2.12,2.41a4.33,4.33,0,0,1,1-2.38A1,1,0,0,1,195.26,405.4Z" style="fill:#407BFF"></path><polygon points="184.88 408.35 192.6 408.35 193.37 390.45 185.65 390.45 184.88 408.35" style="fill:#ff8b7b"></polygon><polygon points="125.36 400.29 132.6 401.95 141.05 384.8 133.81 383.13 125.36 400.29" style="fill:#ff8b7b"></polygon><path d="M133.64,401.12l-7.89-3.62a.67.67,0,0,0-.82.2l-4.25,5.61a1.14,1.14,0,0,0,.45,1.72c2.78,1.21,4.19,1.67,7.66,3.26,2.14,1,9.68,6.29,12.85,7s4.26-2.37,3-2.93a22.18,22.18,0,0,1-10.08-10.27A1.85,1.85,0,0,0,133.64,401.12Z" style="fill:#263238"></path><path d="M192.55,407.45h-8.44a.68.68,0,0,0-.66.53l-1.52,6.87a1.12,1.12,0,0,0,1.11,1.37c3-.05,7.44-.23,11.27-.23,4.47,0,8.34.25,13.58.25,3.17,0,4.05-3.21,2.73-3.5-6.05-1.32-11-1.46-16.21-4.68A3.58,3.58,0,0,0,192.55,407.45Z" style="fill:#263238"></path><path d="M159.35,182.18c-.8,2.07-1.69,4.1-2.59,6-1.54,3.29-3.07,6.15-4.19,8.14-1,1.78-1.64,2.84-1.64,2.84l-16.88-8.37s6.8-19.55,13.9-21.73C155.22,166.84,163,172.86,159.35,182.18Z" style="fill:#263238"></path><path d="M151.87,184.11c1.47,1.08,2.52,4,3.27,7.4-1,1.89-1.85,3.52-2.57,4.79-1,1.79-1.64,2.85-1.64,2.85l-1.94-1A37.28,37.28,0,0,1,151.87,184.11Z" style="opacity:0.2"></path><path d="M195,194.64c0,2.63-.06,5.52-.21,8.71-.38,8.67-1.33,19.47-3.14,32.89H150.37c-.28-6.34,3.7-37.3-2.42-67.19a107.56,107.56,0,0,1,13.84-1.74,151.34,151.34,0,0,1,17.57,0,78,78,0,0,1,11.88,2.14S195.05,173.75,195,194.64Z" style="fill:#263238"></path><path d="M186.73,171.33c.34,0,.92,0,1.47,0l1.78-.08c1.22-.08,2.48-.18,3.74-.3,2.51-.27,5.06-.56,7.57-1a77.53,77.53,0,0,0,14.36-3.46c.54-.21,1.08-.41,1.57-.63.26-.11.52-.22.75-.34l.61-.29a7.44,7.44,0,0,0,1.83-1.38,42.5,42.5,0,0,0,4.48-5.46c2.92-4.12,5.66-8.75,8.39-13.24l6.11,2.36a81,81,0,0,1-5.61,16,42.19,42.19,0,0,1-4.77,7.87,18.16,18.16,0,0,1-4.22,4l-.36.23-.27.16-.53.31c-.35.22-.7.4-1.06.59-.7.39-1.41.73-2.11,1.07A75.4,75.4,0,0,1,203.57,183c-2.82.53-5.64,1-8.51,1.26-1.43.15-2.88.28-4.36.34-.74,0-1.49.07-2.28.07s-1.57,0-2.59-.09Z" style="fill:#ff8b7b"></path><path d="M233.3,145.3l3.37-7.13,6.56,7s-3.68,4.26-7.32,4.44Z" style="fill:#ff8b7b"></path><polygon points="244.65 133.73 247.14 141.1 243.23 145.15 236.67 138.17 244.65 133.73" style="fill:#ff8b7b"></polygon><path d="M178.92,186.51c6.55,3.4,28.83-1.53,28.83-1.53l-1.28-19.15A86.44,86.44,0,0,0,186.41,168C172.45,171.61,171.05,182.43,178.92,186.51Z" style="fill:#263238"></path><polygon points="193.37 390.46 192.97 399.68 185.24 399.68 185.64 390.46 193.37 390.46" style="opacity:0.2"></polygon><polygon points="133.81 383.14 141.05 384.8 136.69 393.64 129.44 391.98 133.81 383.14" style="opacity:0.2"></polygon><path d="M163.33,142.65c1.65,7.49,2.24,12,6.66,15.24,6.66,4.94,15.46,0,16.08-7.81.56-7.05-2.23-18.12-10.11-20A10.47,10.47,0,0,0,163.33,142.65Z" style="fill:#ff8b7b"></path><path d="M176.74,139.62c.26,7.74-.85,16.07-8.06,16.56-5.8.4-11.2-6-14.62-12.33-2.67-5,.61-9.74,3.55-9.79-2.67-2.41-.27-8.79,5.47-8.23s9.25-4.37,13.38-2.54S187.54,126,186.71,122c0,0,4.42,7-3.54,7.86S186,135,176.74,139.62Z" style="fill:#263238"></path><path d="M159.06,134.64s-3.84-1.75-3.75-4.82C154.19,133.89,155.42,133.89,159.06,134.64Z" style="fill:#263238"></path><path d="M173.65,141.92a8.84,8.84,0,0,0,2.4,5.17c1.79,1.84,3.55.6,3.77-1.72.21-2.09-.48-5.57-2.62-6.55S173.43,139.58,173.65,141.92Z" style="fill:#ff8b7b"></path><path d="M177,236.24s.89,55-6,76.55c-11,34.15-29.75,80.08-29.75,80.08l-14.12-3.6S142,340.81,147,312c4.53-25.84,3.37-54.69,3.37-75.8Z" style="fill:#407BFF"></path><path d="M177,236.24s.89,55-6,76.55c-11,34.15-29.75,80.08-29.75,80.08l-14.12-3.6S142,340.81,147,312c4.53-25.84,3.37-54.69,3.37-75.8Z" style="fill:#fff;opacity:0.30000000000000004"></path><path d="M169.32,245.69c-1.46,9.9,3.7,37.49,5.49,46.53,1.88-16.89,2.22-36.93,2.25-47.87C173.28,241.78,170,241.12,169.32,245.69Z" style="opacity:0.2"></path><path d="M145,388.71c.06,0-3.46,4.47-3.46,4.47l-15.43-3.93,1.72-5.24Z" style="fill:#263238"></path><path d="M191.7,236.24s11.64,49.33,12.46,72.9c.92,26.42-8.31,88.76-8.31,88.76H182.76s-1.61-62.82-2.19-86.89c-.63-26.24-16-74.77-16-74.77Z" style="fill:#407BFF"></path><path d="M191.7,236.24s11.64,49.33,12.46,72.9c.92,26.42-8.31,88.76-8.31,88.76H182.76s-1.61-62.82-2.19-86.89c-.63-26.24-16-74.77-16-74.77Z" style="fill:#fff;opacity:0.30000000000000004"></path><path d="M198.37,392.68c.06,0-.74,5.44-.74,5.44H181.71l-.43-4.85Z" style="fill:#263238"></path></g></svg>